<?xml version="1.0" encoding="utf-8"?>
<!-- Generator: Adobe Illustrator 22.0.1, SVG Export Plug-In . SVG Version: 6.00 Build 0)  -->
<svg version="1.1" id="Layer_1" xmlns="http://www.w3.org/2000/svg" xmlns:xlink="http://www.w3.org/1999/xlink" x="0px" y="0px"
	 viewBox="0 0 46 46" style="enable-background:new 0 0 46 46;" xml:space="preserve">
<style type="text/css">
	.st0{fill:#FFFFFF;}
</style>
<path class="st0" d="M23,2.3c11.4,0,20.7,9.3,20.7,20.7S34.4,43.7,23,43.7S2.3,34.4,2.3,23S11.6,2.3,23,2.3 M23,0
	C10.3,0,0,10.3,0,23s10.3,23,23,23s23-10.3,23-23S35.7,0,23,0L23,0z"/>
<g>
	<rect x="26.9" y="15.9" class="st0" width="6.3" height="1.6"/>
	<path class="st0" d="M22.7,24c-0.4-0.6-1-1.1-1.8-1.4c0.5-0.3,0.9-0.6,1.2-0.9c0.5-0.6,0.7-1.4,0.7-2.3c0-0.9-0.2-1.7-0.7-2.4
		c-0.8-1.1-2.2-1.6-4.1-1.7h-7.6V31h7.1c0.8,0,1.5-0.1,2.2-0.2c0.7-0.1,1.3-0.4,1.8-0.8c0.4-0.3,0.8-0.7,1.1-1.2
		c0.5-0.7,0.7-1.6,0.7-2.5C23.3,25.4,23.1,24.6,22.7,24z M14,18h2.9c0.8,0,1.4,0.1,1.9,0.2c0.6,0.2,0.8,0.7,0.8,1.5
		c0,0.7-0.2,1.1-0.6,1.4c-0.4,0.3-1,0.4-1.7,0.4H14V18z M18.9,28c-0.4,0.2-0.9,0.3-1.6,0.3H14v-4.2h3.4c0.7,0,1.2,0.1,1.6,0.3
		c0.7,0.3,1,0.9,1,1.7C20,27,19.6,27.7,18.9,28z"/>
	<path class="st0" d="M35.6,23.5c-0.1-0.9-0.4-1.7-0.9-2.3c-0.5-0.8-1.2-1.3-1.9-1.7c-0.8-0.4-1.7-0.5-2.7-0.5c-1.7,0-3,0.5-4,1.6
		c-1,1-1.6,2.5-1.6,4.5c0,2.1,0.6,3.6,1.7,4.5c1.1,0.9,2.5,1.4,4,1.4c1.8,0,3.2-0.5,4.2-1.6c0.7-0.7,1-1.4,1.1-2h-3
		c-0.2,0.3-0.4,0.6-0.6,0.8c-0.4,0.3-1,0.5-1.6,0.5c-0.6,0-1.2-0.1-1.6-0.4c-0.7-0.5-1.1-1.2-1.2-2.4h8.2
		C35.7,24.8,35.6,24,35.6,23.5z M27.5,23.8c0.1-0.7,0.4-1.3,0.8-1.7c0.4-0.4,1-0.6,1.8-0.6c0.7,0,1.3,0.2,1.7,0.6
		c0.5,0.4,0.7,1,0.8,1.8H27.5z"/>
</g>
</svg>
