<?xml version="1.0" encoding="utf-8"?>
<!-- Generator: Adobe Illustrator 22.0.1, SVG Export Plug-In . SVG Version: 6.00 Build 0)  -->
<svg version="1.1" id="Layer_1" xmlns="http://www.w3.org/2000/svg" xmlns:xlink="http://www.w3.org/1999/xlink" x="0px" y="0px"
	 viewBox="0 0 46 46" style="enable-background:new 0 0 46 46;" xml:space="preserve">
<style type="text/css">
	.st0{fill:#FFFFFF;}
	.st1{fill-rule:evenodd;clip-rule:evenodd;fill:#FFFFFF;}
</style>
<g>
	<path class="st0" d="M23,2.3c11.4,0,20.7,9.3,20.7,20.7S34.4,43.7,23,43.7S2.3,34.4,2.3,23S11.6,2.3,23,2.3 M23,0
		C10.3,0,0,10.3,0,23s10.3,23,23,23s23-10.3,23-23S35.7,0,23,0L23,0z"/>
	<path class="st1" d="M23,10.3c-7,0-12.6,5.7-12.6,12.7c0,7,5.7,12.6,12.6,12.6c7,0,12.7-5.7,12.7-12.6C35.7,16,30,10.3,23,10.3z
		 M31.4,16.2c1.5,1.8,2.4,4.2,2.4,6.7c-0.4-0.1-3.9-0.8-7.5-0.3c-0.1-0.2-0.2-0.4-0.2-0.6c-0.2-0.5-0.5-1-0.7-1.6
		C29.3,18.8,31.1,16.5,31.4,16.2z M23,12.2c2.7,0,5.3,1,7.2,2.7c-0.2,0.3-1.8,2.5-5.7,3.9c-1.8-3.3-3.7-5.9-4-6.3
		C21.3,12.3,22.1,12.2,23,12.2z M18.4,13.2c0.3,0.4,2.2,3.1,4,6.3c-5.1,1.3-9.5,1.3-10,1.3C13.1,17.5,15.4,14.7,18.4,13.2z M12.2,23
		c0-0.1,0-0.2,0-0.3c0.5,0,5.7,0.1,11.1-1.5c0.3,0.6,0.6,1.2,0.9,1.8c-0.1,0-0.3,0.1-0.4,0.1c-5.6,1.8-8.5,6.7-8.8,7.1
		C13.2,28.3,12.2,25.8,12.2,23z M23,33.8c-2.5,0-4.8-0.9-6.6-2.3c0.2-0.4,2.4-4.6,8.5-6.7c0,0,0,0,0.1,0c1.5,3.9,2.1,7.2,2.3,8.2
		C25.9,33.5,24.5,33.8,23,33.8z M29,32c-0.1-0.7-0.7-3.8-2.1-7.7c3.4-0.5,6.4,0.3,6.7,0.5C33.2,27.7,31.5,30.3,29,32z"/>
</g>
</svg>
