<?xml version="1.0" encoding="utf-8"?>
<!-- Generator: Adobe Illustrator 22.0.1, SVG Export Plug-In . SVG Version: 6.00 Build 0)  -->
<svg version="1.1" id="Layer_1" xmlns="http://www.w3.org/2000/svg" xmlns:xlink="http://www.w3.org/1999/xlink" x="0px" y="0px"
	 viewBox="0 0 46 46" style="enable-background:new 0 0 46 46;" xml:space="preserve">
<style type="text/css">
	.st0{fill:#FFFFFF;}
</style>
<g id="Layer_1_1_">
	<path class="st0" d="M23,2.3c11.4,0,20.7,9.3,20.7,20.7S34.4,43.7,23,43.7S2.3,34.4,2.3,23S11.6,2.3,23,2.3 M23,0
		C10.3,0,0,10.3,0,23s10.3,23,23,23s23-10.3,23-23S35.7,0,23,0L23,0z"/>
	<path class="st0" d="M29.9,17.1l-0.4,3.6L29.4,23H25c0,6.6,0,14.8,0,14.8h-5.9c0,0,0-8.1,0-14.8h-3v-5.9H19v-2.7
		c0-2.4,1.1-6.2,6.2-6.2h4.6v5.1c0,0-2.8,0-3.3,0s-1.3,0.3-1.3,1.4v2.4H29.9z"/>
</g>
</svg>
