<?xml version="1.0" encoding="utf-8"?>
<!-- Generator: Adobe Illustrator 22.0.1, SVG Export Plug-In . SVG Version: 6.00 Build 0)  -->
<svg version="1.1" id="Layer_1" xmlns="http://www.w3.org/2000/svg" xmlns:xlink="http://www.w3.org/1999/xlink" x="0px" y="0px"
	 viewBox="0 0 46 46" style="enable-background:new 0 0 46 46;" xml:space="preserve">
<style type="text/css">
	.st0{fill:#FFFFFF;}
</style>
<path class="st0" d="M23,2.3c11.4,0,20.7,9.3,20.7,20.7S34.4,43.7,23,43.7S2.3,34.4,2.3,23S11.6,2.3,23,2.3 M23,0
	C10.3,0,0,10.3,0,23s10.3,23,23,23s23-10.3,23-23S35.7,0,23,0L23,0z"/>
<path class="st0" d="M37.5,21.4v2.4h-3.2v3.2c-0.8,0-1.5,0-2.3,0v-3.2c-0.5,0-1,0-1.5,0c-0.6,0-1.1,0-1.7-0.1c0-0.6-0.1-1.2-0.1-1.7
	v-0.6H32v-3.2c0.7,0,1.4,0,2.1,0c0.1,0,0.2,0.2,0.2,0.3c0,0.8,0,1.6,0,2.3v0.5H37.5z M26.5,21.7c-0.1-0.5-0.3-0.6-0.7-0.6
	c-2,0-4,0-6,0c-0.6,0-1.2,0-1.7,0c-0.1,0-0.3,0.1-0.3,0.2c0,1.2,0,2.3,0,3.5h4.9c0,0.2-0.1,0.4-0.2,0.6c-0.7,2.2-3.1,3.3-5.5,2.9
	c-3.1-0.5-5-3.4-4.4-6.4c0.1-0.4,0.2-0.9,0.4-1.3c1-2.2,3.5-3.6,6-3c0.9,0.2,1.7,0.6,2.3,1.2c0.9-0.9,1.8-1.8,2.7-2.7
	c-0.1,0-0.2-0.1-0.2-0.2c-2.2-1.8-4.7-2.5-7.5-2c-4,0.7-6.9,3.8-7.6,7.5c-0.3,1.6-0.2,3.3,0.5,4.9c1.5,3.9,5.5,6.3,9.7,5.8
	c2.1-0.2,3.9-1,5.3-2.5C26.3,27.4,26.9,24.7,26.5,21.7z"/>
</svg>
