<?xml version="1.0" encoding="utf-8"?>
<!-- Generator: Adobe Illustrator 22.0.1, SVG Export Plug-In . SVG Version: 6.00 Build 0)  -->
<svg version="1.1" id="Layer_1" xmlns="http://www.w3.org/2000/svg" xmlns:xlink="http://www.w3.org/1999/xlink" x="0px" y="0px"
	 viewBox="0 0 46 46" style="enable-background:new 0 0 46 46;" xml:space="preserve">
<style type="text/css">
	.st0{fill:#FFFFFF;}
</style>
<g>
	<path class="st0" d="M23,2.3c11.4,0,20.7,9.3,20.7,20.7S34.4,43.7,23,43.7S2.3,34.4,2.3,23S11.6,2.3,23,2.3 M23,0
		C10.3,0,0,10.3,0,23s10.3,23,23,23s23-10.3,23-23S35.7,0,23,0L23,0z"/>
	<g>
		<path class="st0" d="M28.1,10.3H17.9c-4.2,0-7.6,3.4-7.6,7.6v10.3c0,4.2,3.4,7.6,7.6,7.6h10.3c4.2,0,7.6-3.4,7.6-7.6V17.9
			C35.7,13.7,32.3,10.3,28.1,10.3z M33.2,28.1c0,2.8-2.2,5-5,5H17.9c-2.8,0-5-2.2-5-5V17.9c0-2.8,2.2-5,5-5h10.3c2.8,0,5,2.2,5,5
			V28.1z"/>
		<path class="st0" d="M23,16.4c-3.6,0-6.6,3-6.6,6.6c0,3.6,3,6.6,6.6,6.6c3.6,0,6.6-3,6.6-6.6C29.6,19.4,26.6,16.4,23,16.4z M23,27
			c-2.2,0-4-1.8-4-4c0-2.2,1.8-4,4-4c2.2,0,4,1.8,4,4C27,25.2,25.2,27,23,27z"/>
		<circle class="st0" cx="29.6" cy="16.5" r="1.6"/>
	</g>
</g>
</svg>
