<?xml version="1.0" encoding="utf-8"?>
<!-- Generator: Adobe Illustrator 22.0.1, SVG Export Plug-In . SVG Version: 6.00 Build 0)  -->
<svg version="1.1" id="Layer_1" xmlns="http://www.w3.org/2000/svg" xmlns:xlink="http://www.w3.org/1999/xlink" x="0px" y="0px"
	 viewBox="0 0 46 46" style="enable-background:new 0 0 46 46;" xml:space="preserve">
<style type="text/css">
	.st0{fill:#FFFFFF;}
</style>
<path class="st0" d="M23,2.3c11.4,0,20.7,9.3,20.7,20.7S34.4,43.7,23,43.7S2.3,34.4,2.3,23S11.6,2.3,23,2.3 M23,0
	C10.3,0,0,10.3,0,23s10.3,23,23,23s23-10.3,23-23S35.7,0,23,0L23,0z"/>
<path class="st0" d="M12.9,19.7h4.5v13.5h-4.5V19.7z M28.1,19.2c-1.7,0-3.1,0.9-3.7,2h-0.2v-1.6h-4.5v13.5h4.5v-6.8
	c0-1.8,0.4-3.6,2.3-3.6s2.3,1.8,2.3,3.6v6.8h4.5v-7.9C33.2,21.9,32.3,19.2,28.1,19.2z M15.2,12.5c-1.5,0-2.7,1.2-2.7,2.7
	c0,1.5,1.2,2.7,2.7,2.7c1.5,0,2.7-1.2,2.7-2.7C17.9,13.7,16.6,12.5,15.2,12.5z"/>
</svg>
