<?xml version="1.0" encoding="utf-8"?>
<!-- Generator: Adobe Illustrator 22.0.1, SVG Export Plug-In . SVG Version: 6.00 Build 0)  -->
<svg version="1.1" id="Layer_1" xmlns="http://www.w3.org/2000/svg" xmlns:xlink="http://www.w3.org/1999/xlink" x="0px" y="0px"
	 viewBox="0 0 46 46" style="enable-background:new 0 0 46 46;" xml:space="preserve">
<style type="text/css">
	.st0{fill:#FFFFFF;}
	.st1{fill-rule:evenodd;clip-rule:evenodd;fill:#FFFFFF;}
</style>
<g>
	<path class="st0" d="M23,2.3c11.4,0,20.7,9.3,20.7,20.7S34.4,43.7,23,43.7S2.3,34.4,2.3,23S11.6,2.3,23,2.3 M23,0
		C10.3,0,0,10.3,0,23s10.3,23,23,23s23-10.3,23-23S35.7,0,23,0L23,0z"/>
	<path class="st1" d="M38.1,15.5c-0.7,1.1-1.7,2.1-2.8,2.9v0.7c0,1.1-0.1,2.2-0.4,3.4C33.5,28.9,28,35,19.2,35
		c-3.2,0-6.2-0.9-8.7-2.5c0.5,0,0.9,0.1,1.4,0.1c2.7,0,5.1-0.9,7-2.4c-2.5-0.1-4.6-1.7-5.3-3.9c0.3,0.1,0.7,0.1,1.1,0.1
		c0.5,0,1-0.1,1.5-0.2c-1.9-0.4-3.5-1.7-4.2-3.4c-0.3-0.6-0.4-1.3-0.4-2v-0.1c0.8,0.4,1.6,0.7,2.6,0.7c-1.5-1-2.5-2.7-2.5-4.6
		c0-1,0.3-2,0.8-2.8c2.8,3.4,7,5.6,11.7,5.8c-0.1-0.4-0.2-0.8-0.2-1.3c0-3.1,2.5-5.6,5.7-5.6c1.6,0,3.1,0.7,4.1,1.8
		c1.3-0.3,2.5-0.7,3.6-1.4c-0.4,1.3-1.3,2.4-2.5,3.1C36,16.3,37.1,16,38.1,15.5z"/>
</g>
</svg>
